<mxfile host="app.diagrams.net" modified="2023-01-31T15:59:13.214Z" agent="5.0 (Windows)" etag="Csnx77cfxc5V-czvCHE_" version="20.8.13" type="github">
  <diagram name="Sivu-1" id="6NlXb0n5wwOUordzNCQK">
    <mxGraphModel dx="2607" dy="1422" grid="1" gridSize="10" guides="1" tooltips="1" connect="1" arrows="1" fold="1" page="1" pageScale="1" pageWidth="827" pageHeight="1169" math="0" shadow="0">
      <root>
        <mxCell id="0" />
        <mxCell id="1" parent="0" />
        <mxCell id="XcIBAoRS94__O0NIjRvh-19" value="" style="rounded=1;whiteSpace=wrap;html=1;fontSize=36;fillColor=#fff2cc;strokeColor=#d6b656;" vertex="1" parent="1">
          <mxGeometry y="230" width="220" height="50" as="geometry" />
        </mxCell>
        <mxCell id="XcIBAoRS94__O0NIjRvh-18" value="" style="rounded=1;whiteSpace=wrap;html=1;fontSize=36;fillColor=#fff2cc;strokeColor=#d6b656;" vertex="1" parent="1">
          <mxGeometry y="80" width="160" height="50" as="geometry" />
        </mxCell>
        <mxCell id="2AwR6sXX_FhTF-rHfP74-7" value="" style="rounded=1;whiteSpace=wrap;html=1;fontSize=36;fillColor=#ffe6cc;strokeColor=#d79b00;" parent="1" vertex="1">
          <mxGeometry x="1040" y="230" width="100" height="50" as="geometry" />
        </mxCell>
        <mxCell id="2AwR6sXX_FhTF-rHfP74-6" value="" style="rounded=1;whiteSpace=wrap;html=1;fontSize=36;fillColor=#ffe6cc;strokeColor=#d79b00;" parent="1" vertex="1">
          <mxGeometry x="1250" y="230" width="60" height="50" as="geometry" />
        </mxCell>
        <mxCell id="2AwR6sXX_FhTF-rHfP74-5" value="" style="rounded=1;whiteSpace=wrap;html=1;fontSize=36;fillColor=#d5e8d4;strokeColor=#82b366;" parent="1" vertex="1">
          <mxGeometry x="910" y="80" width="140" height="50" as="geometry" />
        </mxCell>
        <mxCell id="2AwR6sXX_FhTF-rHfP74-4" value="" style="rounded=1;whiteSpace=wrap;html=1;fontSize=36;fillColor=#d5e8d4;strokeColor=#82b366;" parent="1" vertex="1">
          <mxGeometry x="1250" y="80" width="60" height="50" as="geometry" />
        </mxCell>
        <mxCell id="2AwR6sXX_FhTF-rHfP74-1" value="&lt;div style=&quot;font-size: 36px;&quot; align=&quot;left&quot;&gt;&lt;font style=&quot;font-size: 36px;&quot;&gt;Tyhjensin&amp;nbsp; kannun&amp;nbsp; lasiin, joten&amp;nbsp; se&amp;nbsp; on nyt tyhjä.&lt;/font&gt;&lt;/div&gt;" style="text;html=1;strokeColor=none;fillColor=none;align=left;verticalAlign=middle;whiteSpace=wrap;rounded=0;fontSize=36;" parent="1" vertex="1">
          <mxGeometry x="750" y="90" width="820" height="30" as="geometry" />
        </mxCell>
        <mxCell id="2AwR6sXX_FhTF-rHfP74-2" value="&lt;div style=&quot;font-size: 36px;&quot; align=&quot;left&quot;&gt;&lt;font style=&quot;font-size: 36px;&quot;&gt;Tyhjensin kannun&amp;nbsp; lasiin , joten&amp;nbsp; se&amp;nbsp; on nyt täynnä.&lt;br style=&quot;font-size: 36px;&quot;&gt;&lt;/font&gt;&lt;/div&gt;" style="text;html=1;strokeColor=none;fillColor=none;align=left;verticalAlign=middle;whiteSpace=wrap;rounded=0;fontSize=36;" parent="1" vertex="1">
          <mxGeometry x="750" y="240" width="820" height="30" as="geometry" />
        </mxCell>
        <mxCell id="2AwR6sXX_FhTF-rHfP74-3" value="" style="curved=1;endArrow=classic;html=1;rounded=0;fontSize=36;exitX=0.436;exitY=-0.014;exitDx=0;exitDy=0;exitPerimeter=0;entryX=0.601;entryY=-0.042;entryDx=0;entryDy=0;entryPerimeter=0;" parent="1" source="2AwR6sXX_FhTF-rHfP74-4" target="2AwR6sXX_FhTF-rHfP74-5" edge="1">
          <mxGeometry width="50" height="50" relative="1" as="geometry">
            <mxPoint x="1280" y="90" as="sourcePoint" />
            <mxPoint x="1040" y="70" as="targetPoint" />
            <Array as="points">
              <mxPoint x="1223" y="50" />
              <mxPoint x="1150" y="30" />
              <mxPoint x="1093" y="30" />
              <mxPoint x="1033" y="50" />
            </Array>
          </mxGeometry>
        </mxCell>
        <mxCell id="2AwR6sXX_FhTF-rHfP74-8" value="" style="curved=1;endArrow=classic;html=1;rounded=0;fontSize=36;exitX=0.5;exitY=0;exitDx=0;exitDy=0;entryX=0.52;entryY=-0.077;entryDx=0;entryDy=0;entryPerimeter=0;" parent="1" source="2AwR6sXX_FhTF-rHfP74-6" target="2AwR6sXX_FhTF-rHfP74-7" edge="1">
          <mxGeometry width="50" height="50" relative="1" as="geometry">
            <mxPoint x="1286.1599999999996" y="229.99999999999994" as="sourcePoint" />
            <mxPoint x="1004.1399999999999" y="228.59999999999997" as="targetPoint" />
            <Array as="points">
              <mxPoint x="1240" y="200" />
              <mxPoint x="1190" y="190" />
              <mxPoint x="1130" y="200" />
            </Array>
          </mxGeometry>
        </mxCell>
        <mxCell id="2AwR6sXX_FhTF-rHfP74-10" value="" style="curved=1;endArrow=classic;html=1;rounded=0;fontSize=36;entryX=0.643;entryY=1.075;entryDx=0;entryDy=0;entryPerimeter=0;" parent="1" target="2AwR6sXX_FhTF-rHfP74-4" edge="1">
          <mxGeometry width="50" height="50" relative="1" as="geometry">
            <mxPoint x="1460" y="130" as="sourcePoint" />
            <mxPoint x="1290" y="140" as="targetPoint" />
            <Array as="points">
              <mxPoint x="1400" y="160" />
              <mxPoint x="1330" y="160" />
            </Array>
          </mxGeometry>
        </mxCell>
        <mxCell id="2AwR6sXX_FhTF-rHfP74-11" value="" style="curved=1;endArrow=classic;html=1;rounded=0;fontSize=36;entryX=0.643;entryY=1.075;entryDx=0;entryDy=0;entryPerimeter=0;" parent="1" edge="1">
          <mxGeometry width="50" height="50" relative="1" as="geometry">
            <mxPoint x="1461.4199999999996" y="280" as="sourcePoint" />
            <mxPoint x="1289.9999999999995" y="283.75" as="targetPoint" />
            <Array as="points">
              <mxPoint x="1401.42" y="310" />
              <mxPoint x="1331.42" y="310" />
            </Array>
          </mxGeometry>
        </mxCell>
        <mxCell id="XcIBAoRS94__O0NIjRvh-4" value="" style="rounded=1;whiteSpace=wrap;html=1;fontSize=36;fillColor=#d5e8d4;strokeColor=#82b366;" vertex="1" parent="1">
          <mxGeometry x="379" y="80" width="101" height="50" as="geometry" />
        </mxCell>
        <mxCell id="XcIBAoRS94__O0NIjRvh-7" value="" style="curved=1;endArrow=classic;html=1;rounded=0;fontSize=36;entryX=0.436;entryY=-0.014;entryDx=0;entryDy=0;entryPerimeter=0;" edge="1" parent="1" target="XcIBAoRS94__O0NIjRvh-4">
          <mxGeometry width="50" height="50" relative="1" as="geometry">
            <mxPoint x="130" y="80" as="sourcePoint" />
            <mxPoint x="540" y="80" as="targetPoint" />
            <Array as="points">
              <mxPoint x="200" y="40" />
              <mxPoint x="340" y="40" />
            </Array>
          </mxGeometry>
        </mxCell>
        <mxCell id="XcIBAoRS94__O0NIjRvh-11" value="&lt;div style=&quot;font-size: 36px;&quot; align=&quot;left&quot;&gt;&lt;font style=&quot;font-size: 36px;&quot;&gt;Syötyä&lt;u style=&quot;font-size: 36px;&quot;&gt;än&lt;/u&gt; aamiaisen&lt;u&gt;sa&lt;/u&gt;&amp;nbsp; poika&amp;nbsp; lähti kouluun.&lt;br style=&quot;font-size: 36px;&quot;&gt;&lt;/font&gt;&lt;/div&gt;" style="text;html=1;strokeColor=none;fillColor=none;align=left;verticalAlign=middle;whiteSpace=wrap;rounded=0;fontSize=36;" vertex="1" parent="1">
          <mxGeometry y="90" width="750" height="30" as="geometry" />
        </mxCell>
        <mxCell id="XcIBAoRS94__O0NIjRvh-14" value="After eating ? breakfast ..." style="text;html=1;strokeColor=none;fillColor=none;align=left;verticalAlign=middle;whiteSpace=wrap;rounded=0;fontSize=36;" vertex="1" parent="1">
          <mxGeometry y="238.75" width="440" height="30" as="geometry" />
        </mxCell>
        <mxCell id="XcIBAoRS94__O0NIjRvh-17" value="" style="endArrow=classic;html=1;rounded=0;fontSize=36;exitX=0.5;exitY=1;exitDx=0;exitDy=0;entryX=0.5;entryY=0;entryDx=0;entryDy=0;" edge="1" parent="1" source="XcIBAoRS94__O0NIjRvh-18" target="XcIBAoRS94__O0NIjRvh-19">
          <mxGeometry width="50" height="50" relative="1" as="geometry">
            <mxPoint x="140" y="130" as="sourcePoint" />
            <mxPoint x="110" y="220" as="targetPoint" />
          </mxGeometry>
        </mxCell>
        <mxCell id="XcIBAoRS94__O0NIjRvh-21" value="" style="endArrow=none;dashed=1;html=1;dashPattern=1 3;strokeWidth=2;rounded=0;fontSize=36;entryX=0.5;entryY=1;entryDx=0;entryDy=0;fillColor=#d5e8d4;strokeColor=#82b366;" edge="1" parent="1" target="XcIBAoRS94__O0NIjRvh-4">
          <mxGeometry width="50" height="50" relative="1" as="geometry">
            <mxPoint x="210" y="220" as="sourcePoint" />
            <mxPoint x="540" y="150" as="targetPoint" />
          </mxGeometry>
        </mxCell>
        <mxCell id="XcIBAoRS94__O0NIjRvh-23" value="" style="curved=1;endArrow=classic;html=1;rounded=0;fontSize=36;entryX=0.604;entryY=0;entryDx=0;entryDy=0;entryPerimeter=0;" edge="1" parent="1" target="XcIBAoRS94__O0NIjRvh-4">
          <mxGeometry width="50" height="50" relative="1" as="geometry">
            <mxPoint x="350" y="80" as="sourcePoint" />
            <mxPoint x="470" y="70" as="targetPoint" />
            <Array as="points">
              <mxPoint x="370" y="50" />
              <mxPoint x="410" y="50" />
            </Array>
          </mxGeometry>
        </mxCell>
      </root>
    </mxGraphModel>
  </diagram>
</mxfile>
